<svg xmlns="http://www.w3.org/2000/svg" viewBox="0 0 256 256" role="img" aria-labelledby="title desc">
  <title id="title">Attendance Hub Logo</title>
  <desc id="desc">Calendar with check mark and connected nodes in blue and teal gradient.</desc>
  <defs>
    <linearGradient id="bg" x1="0%" y1="100%" x2="100%" y2="0%">
      <stop offset="0%" stop-color="#0c2b7a"/>
      <stop offset="55%" stop-color="#0f6fc1"/>
      <stop offset="100%" stop-color="#20c7a0"/>
    </linearGradient>
    <linearGradient id="deep" x1="0%" y1="0%" x2="0%" y2="100%">
      <stop offset="0%" stop-color="#0e4fa5"/>
      <stop offset="100%" stop-color="#0a2b7a"/>
    </linearGradient>
    <linearGradient id="check" x1="0%" y1="100%" x2="100%" y2="0%">
      <stop offset="0%" stop-color="#0f4ea3"/>
      <stop offset="100%" stop-color="#22c8a0"/>
    </linearGradient>
  </defs>

  <path fill="url(#bg)" d="M57 54h128c12 0 22 10 22 22v80c0 12-10 22-22 22H57c-12 0-22-10-22-22V76c0-12 10-22 22-22z"/>
  <rect x="62" y="79" width="118" height="74" rx="11" fill="#f8fafc"/>
  <rect x="62" y="79" width="118" height="18" fill="url(#bg)"/>
  <rect x="73" y="100" width="17" height="17" rx="3" fill="url(#deep)"/>
  <rect x="95" y="100" width="17" height="17" rx="3" fill="#0ebea0"/>
  <rect x="73" y="122" width="17" height="17" rx="3" fill="#0f4ea3"/>
  <rect x="66" y="40" width="14" height="25" rx="5" fill="url(#bg)"/>
  <rect x="145" y="40" width="14" height="25" rx="5" fill="url(#bg)"/>

  <path fill="url(#check)" d="M90 146l21 21 74-61a9 9 0 0 1 12 1l0 0a9 9 0 0 1-1 12l-82 68a9 9 0 0 1-12 0l-25-25a9 9 0 0 1 13-12z"/>

  <path fill="url(#deep)" d="M35 130l92 56 94-43 8 16-99 47a5 5 0 0 1-5 0L27 147z"/>
  <line x1="35" y1="130" x2="127" y2="186" stroke="#ffffff" stroke-width="5" stroke-linecap="round"/>
  <line x1="127" y1="186" x2="209" y2="110" stroke="#ffffff" stroke-width="5" stroke-linecap="round"/>
  <line x1="127" y1="186" x2="210" y2="148" stroke="#ffffff" stroke-width="4" stroke-linecap="round"/>

  <circle cx="35" cy="130" r="10" fill="url(#deep)"/>
  <circle cx="127" cy="186" r="11" fill="url(#deep)"/>
  <circle cx="210" cy="148" r="10" fill="#0ebea0"/>
  <circle cx="224" cy="98" r="9" fill="#31d09f"/>
</svg>
